<?xml version="1.0" encoding="UTF-8"?>
<svg version="1.1" xmlns="http://www.w3.org/2000/svg" width="601" height="600">
<path d="M0 0 C197.01 0 394.02 0 597 0 C597 197.01 597 394.02 597 597 C399.99 597 202.98 597 0 597 C0 399.99 0 202.98 0 0 Z " fill="#F2E7D7" transform="translate(0,3)"/>
<path d="M0 0 C1.32 0 2.64 0 4 0 C5.4606285 2.64738916 6 3.89448334 6 7 C6.66 7 7.32 7 8 7 C8.25394531 7.70125 8.50789063 8.4025 8.76953125 9.125 C11.09749332 15.54510144 11.09749332 15.54510144 13.5 21.9375 C19 36.5535221 19 36.5535221 19 40 C19.66 40 20.32 40 21 40 C21.19335938 40.74765625 21.38671875 41.4953125 21.5859375 42.265625 C21.84632813 43.25046875 22.10671875 44.2353125 22.375 45.25 C22.63023437 46.22453125 22.88546875 47.1990625 23.1484375 48.203125 C23.89780598 50.95370542 23.89780598 50.95370542 25.1015625 53.171875 C26 55 26 55 26 58 C26.66 58 27.32 58 28 58 C28.37125 59.485 28.37125 59.485 28.75 61 C29.7621825 64.54976678 31.24372478 67.65654598 32.9375 70.92578125 C36.06301377 77.02742763 38.60984639 83.40281652 41.1875 89.75 C41.44966309 90.3881665 41.71182617 91.02633301 41.98193359 91.68383789 C43.35388636 95.09850571 44.42378645 98.36221806 45 102 C45.66 102 46.32 102 47 102 C47.34611328 102.98226562 47.34611328 102.98226562 47.69921875 103.984375 C49.87085222 110.06151529 52.17272717 116.05911484 54.72265625 121.98828125 C55.58838887 124.02950404 56.40760086 126.09097128 57.18359375 128.16796875 C57.57675781 129.16441406 57.96992188 130.16085938 58.375 131.1875 C58.88160156 132.53908203 58.88160156 132.53908203 59.3984375 133.91796875 C60.884218 136.31766987 60.884218 136.31766987 64.0144043 136.6262207 C68.46435351 137.14015639 72.8976117 137.10692616 77.37109375 137.0625 C78.25225357 137.05871338 79.13341339 137.05492676 80.04127502 137.05102539 C83.78221489 137.03479635 87.523042 137.00663509 91.26391602 136.97949219 C94.00797003 136.96131172 96.75200596 136.94927942 99.49609375 136.9375 C100.32966904 136.92920166 101.16324432 136.92090332 102.02207947 136.91235352 C107.10939186 136.89128605 111.96430641 137.26653793 117 138 C117.99 134.7 118.98 131.4 120 128 C120.66 128 121.32 128 122 128 C122.17595703 126.93845703 122.17595703 126.93845703 122.35546875 125.85546875 C123.04332456 122.80805906 124.0759915 120.17982157 125.3125 117.3125 C125.76367188 116.25160156 126.21484375 115.19070312 126.6796875 114.09765625 C127.11539063 113.07542969 127.55109375 112.05320312 128 111 C129.91366259 106.36418947 131.74799829 101.7040701 133.4765625 96.99609375 C133.73832275 96.28614258 134.00008301 95.57619141 134.26977539 94.84472656 C134.78662911 93.43822227 135.29905597 92.03008091 135.80639648 90.62011719 C137.21084419 86.79776102 138.82773522 83.43612793 141 80 C144.2171995 74.00126343 147.15636136 68.07242849 149.15234375 61.55859375 C151.1260891 55.60097531 153.63908333 49.81351068 156 44 C156.35191406 43.10667969 156.70382812 42.21335938 157.06640625 41.29296875 C157.93011319 39.17164667 158.88556025 37.12723998 159.875 35.0625 C161.64623416 31.14094836 162.82223031 27.21654097 163.9375 23.0625 C165.62491159 16.90411205 167.93505222 11.57820496 171 6 C171.60996891 4.79458524 172.21510575 3.58669588 172.8125 2.375 C173.204375 1.59125 173.59625 0.8075 174 0 C175.65 0.33 177.3 0.66 179 1 C179.26554687 1.92683594 179.53109375 2.85367188 179.8046875 3.80859375 C180.33449219 5.60490234 180.33449219 5.60490234 180.875 7.4375 C181.22304688 8.63246094 181.57109375 9.82742187 181.9296875 11.05859375 C182.6608291 14.11691031 182.6608291 14.11691031 185 15 C184.938125 15.86625 184.87625 16.7325 184.8125 17.625 C185.03020033 21.54360595 186.19802463 23.52952891 188 27 C188.76465179 29.25299189 189.40899439 31.5275038 190.05859375 33.81640625 C190.77638675 36.2437975 191.5376718 38.63079182 192.34765625 41.02734375 C195.41988445 50.21203637 197.89800852 59.38975433 199.875 68.875 C200.0901123 69.90318848 200.30522461 70.93137695 200.52685547 71.99072266 C201.41539744 76.41432409 202.11441617 80.47296734 202 85 C202.66 85 203.32 85 204 85 C206.56354328 95.32888209 209.09129753 105.56815713 210.546875 116.12109375 C211.15882127 120.00906275 212.14786601 123.75797074 213.14453125 127.5625 C214.22299326 131.89604598 215.14848949 136.25425252 216.0625 140.625 C216.2378125 141.45781494 216.413125 142.29062988 216.59375 143.14868164 C217.42181005 147.11159688 218.19033752 151.0720934 218.875 155.0625 C220.6468787 164.0974851 223.8851028 173.28900549 227.59765625 181.70703125 C228.84842481 184.64407274 229.73635697 187.40906392 230.5 190.5 C231.65364853 194.91527265 233.1269883 198.84680014 235 203 C235.4640625 204.40185547 235.4640625 204.40185547 235.9375 205.83203125 C236.97306892 208.91970182 238.16217242 211.87937073 239.4375 214.875 C241.40184163 219.55036282 243.30290258 224.22133095 245 229 C245.30679687 229.84433594 245.61359375 230.68867188 245.9296875 231.55859375 C248.72738248 239.55045887 250.73669221 247.63534453 252.52978516 255.89892578 C252.95622184 257.80438481 253.43423082 259.69811968 253.91796875 261.58984375 C256.04109211 270.77010955 256.31291083 279.72711426 256.375 289.125 C256.38885742 290.37563232 256.40271484 291.62626465 256.41699219 292.91479492 C256.36868876 302.59391243 255.06855879 311.79432364 252 321 C253.06476563 321.23074219 254.12953125 321.46148437 255.2265625 321.69921875 C267.99561353 324.53579867 279.97248555 328.38136777 291.8125 334 C292.86352905 334.48001465 292.86352905 334.48001465 293.93579102 334.96972656 C298.75574451 337.35116688 298.75574451 337.35116688 300.01171875 340.6875 C300 343 300 343 299 344 C293.65725677 344.40385048 290.21170225 343.54874805 285.4375 341.1875 C284.36371094 340.66542969 283.28992188 340.14335937 282.18359375 339.60546875 C280.054902 338.53198126 277.93118851 337.44856662 275.8125 336.35546875 C273.08507941 335.04100355 270.50822733 334.33968566 267.56640625 333.671875 C261.61732128 332.1144281 255.81766795 329.98467318 250 328 C249.92523438 328.55945313 249.85046875 329.11890625 249.7734375 329.6953125 C248.32512433 338.52718301 245.11934452 349.23037091 239 356 C238.34 356 237.68 356 237 356 C237 357.32 237 358.64 237 360 C236.34 360 235.68 360 235 360 C235 360.66 235 361.32 235 362 C235.556875 362.061875 236.11375 362.12375 236.6875 362.1875 C239.94344904 363.33148209 241.607132 365.54876936 244 368 C245.2375 368.7425 245.2375 368.7425 246.5 369.5 C249.52308529 371.31385117 251.56088593 373.44743876 254 376 C254.6909375 376.6703125 255.381875 377.340625 256.09375 378.03125 C257.19203125 379.09859375 257.19203125 379.09859375 258.3125 380.1875 C259.00988281 380.86167969 259.70726562 381.53585937 260.42578125 382.23046875 C262 384 262 384 262 386 C262.99 386.33 263.98 386.66 265 387 C266.33130055 388.53284072 267.59434309 390.12579079 268.8125 391.75 C271.15693543 394.78524513 273.3239494 397.48110752 276.375 399.8125 C279.1264956 402.105413 280.02877998 403.60072992 281 407 C281.66 407 282.32 407 283 407 C283 409.64 283 412.28 283 415 C279.99551531 414.91467084 277.77209713 414.65360816 275.42822266 412.66943359 C273.81501467 410.89290179 272.30346476 409.06774074 270.8125 407.1875 C270.03229492 406.24293945 270.03229492 406.24293945 269.23632812 405.27929688 C267.80328294 403.53511799 266.39738097 401.77279675 265 400 C264.38511719 399.23300781 263.77023437 398.46601563 263.13671875 397.67578125 C262 396 262 396 262 394 C261.01 394 260.02 394 259 394 C257.28859531 392.03814584 255.62126675 390.03697617 254 388 C253.34 387.67 252.68 387.34 252 387 C252 386.34 252 385.68 252 385 C251.401875 384.731875 250.80375 384.46375 250.1875 384.1875 C248.00152146 383.00082594 246.58667406 381.90400887 245 380 C245 379.34 245 378.68 245 378 C244.2575 377.7525 243.515 377.505 242.75 377.25 C239.76976913 375.89534961 238.10080748 374.4898459 236 372 C236 371.34 236 370.68 236 370 C234.68 369.34 233.36 368.68 232 368 C232 367.34 232 366.68 232 366 C225.81253155 370.52674699 225.81253155 370.52674699 220.5625 376.0625 C215.64846912 381.69565735 208.64237851 384.75981536 202 388 C201.01 388.66 200.02 389.32 199 390 C197.68 390 196.36 390 195 390 C195.41572266 391.10408203 195.41572266 391.10408203 195.83984375 392.23046875 C196.20207031 393.20628906 196.56429688 394.18210937 196.9375 395.1875 C197.29714844 396.15042969 197.65679687 397.11335938 198.02734375 398.10546875 C199 401 199 401 199.50390625 403.80078125 C199.66761719 404.52652344 199.83132813 405.25226563 200 406 C200.66 406.33 201.32 406.66 202 407 C204.18220673 412.69798424 204.21915315 417.94893809 204 424 C201 425 201 425 198 424 C198 422.68 198 421.36 198 420 C197.34 420 196.68 420 196 420 C195.67 417.36 195.34 414.72 195 412 C194.34 412 193.68 412 193 412 C192.87625 410.9275 192.7525 409.855 192.625 408.75 C192.09251493 405.55508956 191.48157272 403.76560241 190 401 C190 400.01 190 399.02 190 398 C189.34 398 188.68 398 188 398 C187.67 397.01 187.34 396.02 187 395 C184.43670692 395.78916896 181.87437241 396.58124319 179.3125 397.375 C178.59126953 397.59671875 177.87003906 397.8184375 177.12695312 398.046875 C174.08243637 398.9922044 171.11158561 399.95463003 168.15625 401.15625 C165.65118946 402.13649108 163.66655204 402.1523744 161 402 C161 402.66 161 403.32 161 404 C150.7554228 407.20811395 140.59878924 409.31423657 130 411 C130.33 412.32 130.66 413.64 131 415 C131.33 414.67 131.66 414.34 132 414 C147.29405415 413.00836557 147.29405415 413.00836557 154 417 C155 418 155 418 155.125 421.4375 C155 425 155 425 154 427 C157.3 428.32 160.6 429.64 164 431 C164 431.66 164 432.32 164 433 C164.99128906 432.9484375 165.98257812 432.896875 167.00390625 432.84375 C171.43332662 433.01694337 174.81449176 434.00293126 178.9375 435.5 C179.96327148 435.85771484 179.96327148 435.85771484 181.00976562 436.22265625 C182.67658097 436.80545882 184.33880316 437.40137051 186 438 C186 438.66 186 439.32 186 440 C186.598125 440.144375 187.19625 440.28875 187.8125 440.4375 C192.10686442 441.54176514 193.90405935 442.90405935 197 446 C197.639375 446.309375 198.27875 446.61875 198.9375 446.9375 C201.85595715 448.44094762 203.74578255 450.63307167 206 453 C206.763125 453.70125 207.52625 454.4025 208.3125 455.125 C210 457 210 457 210 460 C210.99 460.33 211.98 460.66 213 461 C213 461.66 213 462.32 213 463 C213.66 463 214.32 463 215 463 C215.41572266 463.84884766 215.41572266 463.84884766 215.83984375 464.71484375 C216.20207031 465.44832031 216.56429688 466.18179687 216.9375 466.9375 C217.29714844 467.66839844 217.65679687 468.39929688 218.02734375 469.15234375 C218.86371827 470.96249027 218.86371827 470.96249027 220 472 C220.144375 473.11375 220.28875 474.2275 220.4375 475.375 C220.75300217 479.08510547 220.75300217 479.08510547 223 482 C224.08748852 485.977556 224.12896713 489.8013752 224.1328125 493.91015625 C224.13410156 495.22951172 224.13539063 496.54886719 224.13671875 497.90820312 C224.13462402 498.59019775 224.1325293 499.27219238 224.13037109 499.97485352 C224.12500777 502.05948126 224.1303355 504.14389443 224.13671875 506.22851562 C224.13478516 508.20561523 224.13478516 508.20561523 224.1328125 510.22265625 C224.13168457 511.42672119 224.13055664 512.63078613 224.12939453 513.87133789 C224 517 224 517 223 521 C222.67 525.95 222.34 530.9 222 536 C139.17 536 56.34 536 -29 536 C-28.16451295 528.48061654 -26.85577422 522.3911698 -24.68164062 515.27001953 C-23.89306884 512.64389474 -23.14238797 510.00798601 -22.390625 507.37109375 C-18.23561634 492.98279886 -13.78719583 481.81903185 -3.953125 470.3125 C-1.89209486 467.96066991 -1.89209486 467.96066991 0 465 C0.66 465 1.32 465 2 465 C2 464.34 2 463.68 2 463 C2.66 463 3.32 463 4 463 C5.07378276 459.77865172 5.17358727 457.19800179 5.3125 453.8125 C5.94707112 445.0261306 8.98128114 439.30532452 15 433 C18.97002985 429.87465736 21.96377705 428.47964028 27 428 C26.88140625 427.39671875 26.7628125 426.7934375 26.640625 426.171875 C25.58341369 419.6171649 25.58341369 419.6171649 27.6875 416.5 C32.06836847 413.65835559 36.0973551 413.88979032 41.25 413.9375 C43.14492188 413.95103516 43.14492188 413.95103516 45.078125 413.96484375 C46.04234375 413.97644531 47.0065625 413.98804688 48 414 C48 413.01 48 412.02 48 411 C47.17822266 410.83564453 47.17822266 410.83564453 46.33984375 410.66796875 C44.60856908 410.32171382 42.87820526 409.97089351 41.1484375 409.6171875 C38.99298935 409.19465548 36.83078629 408.80558742 34.6640625 408.4453125 C24.66253591 406.68799438 15.63657195 403.47194527 6.19140625 399.828125 C1.51500975 398.0609306 -3.24127075 396.52925231 -8 395 C-8.12761719 395.72316406 -8.25523437 396.44632812 -8.38671875 397.19140625 C-8.98202503 399.91768151 -9.80711274 402.33791303 -10.8125 404.9375 C-13.26680024 411.51826109 -15.1425838 418.23228672 -17 425 C-18.98 424.67 -20.96 424.34 -23 424 C-23.31891323 417.36188016 -23.25681159 412.91050992 -20 407 C-19.15954842 403.9183442 -18.44021368 400.82468858 -17.74609375 397.70703125 C-17 395 -17 395 -15 392 C-16.3921875 391.566875 -16.3921875 391.566875 -17.8125 391.125 C-21 390 -21 390 -24 388 C-24 387.34 -24 386.68 -24 386 C-25.0828125 386.0928125 -25.0828125 386.0928125 -26.1875 386.1875 C-29.56199315 385.96253379 -31.30593911 385.00130237 -34 383 C-34 382.34 -34 381.68 -34 381 C-35.32 380.67 -36.64 380.34 -38 380 C-38 379.34 -38 378.68 -38 378 C-39.65 377.34 -41.3 376.68 -43 376 C-43 375.34 -43 374.68 -43 374 C-43.99 373.67 -44.98 373.34 -46 373 C-47.6875 370.9375 -47.6875 370.9375 -49 369 C-52.98559909 369.52496626 -55.02045576 370.5059502 -57.9375 373.25 C-58.96423828 374.19746094 -58.96423828 374.19746094 -60.01171875 375.1640625 C-60.66785156 375.76992188 -61.32398438 376.37578125 -62 377 C-63.07723616 377.88249553 -64.15990253 378.75844151 -65.25 379.625 C-67.90190487 381.91528148 -69.86056606 384.23944008 -72 387 C-76.36363636 391.69090909 -76.36363636 391.69090909 -79.1875 393.0625 C-81.53801104 394.27828157 -81.87248269 395.66979756 -83 398 C-83.99 398.33 -84.98 398.66 -86 399 C-86.185625 399.86625 -86.185625 399.86625 -86.375 400.75 C-87.29305542 404.05499952 -89.57380998 405.63157641 -92 408 C-93.00568242 409.66324401 -94.00664799 411.32936253 -95 413 C-98 415 -98 415 -102 415 C-102.8125 413 -102.8125 413 -103 410 C-101.69424348 407.06882042 -100.1549389 404.38582521 -98 402 C-97.01 402 -96.02 402 -95 402 C-94.814375 401.34 -94.62875 400.68 -94.4375 400 C-91.40706058 393.67560469 -85.90622715 388.90622715 -81 384 C-80.278125 383.071875 -79.55625 382.14375 -78.8125 381.1875 C-77.9153125 380.1046875 -77.9153125 380.1046875 -77 379 C-76.34 379 -75.68 379 -75 379 C-75 378.34 -75 377.68 -75 377 C-71.53846154 374 -71.53846154 374 -69 374 C-68.731875 373.360625 -68.46375 372.72125 -68.1875 372.0625 C-67 370 -67 370 -64 369 C-64 368.34 -64 367.68 -64 367 C-60.53846154 364 -60.53846154 364 -58 364 C-58 362.02 -58 360.04 -58 358 C-58.66 358 -59.32 358 -60 358 C-63.2960088 352.10131759 -66.50927503 346.28611539 -69 340 C-69.2784375 339.30777344 -69.556875 338.61554688 -69.84375 337.90234375 C-71.05589727 334.81024585 -72 332.35006454 -72 329 C-76.68210453 330.45346312 -81.36187141 331.9140116 -86.03857422 333.38476562 C-87.61941897 333.88062432 -89.20201776 334.37088907 -90.78515625 334.859375 C-95.80334102 336.45244953 -100.32927365 338.58806754 -105 341 C-109.41610711 343.20805356 -112.98217234 344.36715812 -118 344 C-118.33 342.35 -118.66 340.7 -119 339 C-117.60922699 338.17886823 -116.21211107 337.36847505 -114.8125 336.5625 C-114.03519531 336.11003906 -113.25789063 335.65757812 -112.45703125 335.19140625 C-109.95068023 333.97608501 -107.74209635 333.42373425 -105 333 C-105 332.34 -105 331.68 -105 331 C-104.43410156 330.87882812 -103.86820313 330.75765625 -103.28515625 330.6328125 C-102.55167969 330.46523438 -101.81820312 330.29765625 -101.0625 330.125 C-100.33160156 329.96257812 -99.60070312 329.80015625 -98.84765625 329.6328125 C-96.79299706 329.17038477 -96.79299706 329.17038477 -96 327 C-94.14453125 326.4375 -94.14453125 326.4375 -91.8125 326 C-88.08728637 325.24552635 -84.58727936 324.27547711 -81 323 C-79 322.33333333 -77 321.66666667 -75 321 C-75.46972849 316.77244362 -76.05235195 312.70706881 -77.0234375 308.56640625 C-78.31960828 302.15526435 -78.30066737 295.8327292 -78.25 289.3125 C-78.24395752 288.07314697 -78.23791504 286.83379395 -78.23168945 285.55688477 C-78.10566431 273.91598004 -77.11111607 262.97336128 -73.7890625 251.765625 C-72.58231581 247.5360376 -71.68038986 243.24201891 -70.74609375 238.9453125 C-70.04033321 236.15922116 -69.09810224 233.65043955 -68 231 C-67.67 229.783125 -67.34 228.56625 -67 227.3125 C-66 224 -66 224 -64 222 C-62.91787095 218.74923175 -62.01763551 215.46406907 -61.09765625 212.1640625 C-60.06174932 209.17799625 -58.95260547 207.4261256 -57 205 C-56.25276167 202.66488021 -55.60525118 200.37094636 -55 198 C-53.52386663 192.57497482 -51.80289083 187.41114576 -49.5625 182.25 C-46.72710507 175.65126271 -44.83570304 168.93259918 -43 162 C-42.34 162 -41.68 162 -41 162 C-41.04382813 160.90042969 -41.08765625 159.80085937 -41.1328125 158.66796875 C-41.12586575 153.38265323 -40.02170188 148.45226597 -38.875 143.3125 C-38.41454776 141.18897903 -37.95495173 139.06527228 -37.49609375 136.94140625 C-37.2522998 135.82137207 -37.00850586 134.70133789 -36.75732422 133.54736328 C-35.96540688 129.83796325 -35.21415722 126.12213605 -34.47265625 122.40234375 C-34.21693848 121.1289917 -33.9612207 119.85563965 -33.69775391 118.54370117 C-33.20403837 116.08003847 -32.71515041 113.61540159 -32.23193359 111.1496582 C-30.88164776 104.48478583 -29.14438446 98.16447069 -26.91259766 91.74291992 C-24.15480299 83.4540427 -23.01727311 74.67792598 -21.58789062 66.08398438 C-20.73503462 61.2012988 -19.68428464 56.71447528 -17.82739258 52.11938477 C-16.08787966 47.66358315 -14.74615476 43.06135668 -13.3125 38.5 C-12.99216797 37.48679688 -12.67183594 36.47359375 -12.34179688 35.4296875 C-11.55929706 32.95371792 -10.77874378 30.47715297 -10 28 C-9.34 28 -8.68 28 -8 28 C-7.9175 26.948125 -7.835 25.89625 -7.75 24.8125 C-6.68145492 16.23360947 -3.63380861 7.81268852 0 0 Z " fill="#5C5D61" transform="translate(210,64)"/>
<path d="M0 0 C2.4923473 10.32875091 4.73693004 20.33470529 5 31 C5.02578125 31.87994629 5.0515625 32.75989258 5.078125 33.66650391 C5.42855656 47.02451693 5.26398714 59.20803858 1 72 C2.06476563 72.23074219 3.12953125 72.46148437 4.2265625 72.69921875 C16.99561353 75.53579867 28.97248555 79.38136777 40.8125 85 C41.86352905 85.48001465 41.86352905 85.48001465 42.93579102 85.96972656 C47.75574451 88.35116688 47.75574451 88.35116688 49.01171875 91.6875 C49 94 49 94 48 95 C42.65725677 95.40385048 39.21170225 94.54874805 34.4375 92.1875 C33.36371094 91.66542969 32.28992188 91.14335937 31.18359375 90.60546875 C29.054902 89.53198126 26.93118851 88.44856662 24.8125 87.35546875 C22.08507941 86.04100355 19.50822733 85.33968566 16.56640625 84.671875 C10.61732128 83.1144281 4.81766795 80.98467318 -1 79 C-1.07476562 79.55945313 -1.14953125 80.11890625 -1.2265625 80.6953125 C-2.67487567 89.52718301 -5.88065548 100.23037091 -12 107 C-12.66 107 -13.32 107 -14 107 C-14 108.32 -14 109.64 -14 111 C-14.66 111 -15.32 111 -16 111 C-16 111.66 -16 112.32 -16 113 C-15.443125 113.061875 -14.88625 113.12375 -14.3125 113.1875 C-11.05655096 114.33148209 -9.392868 116.54876936 -7 119 C-6.175 119.495 -5.35 119.99 -4.5 120.5 C-1.47691471 122.31385117 0.56088593 124.44743876 3 127 C3.6909375 127.6703125 4.381875 128.340625 5.09375 129.03125 C5.8259375 129.7428125 6.558125 130.454375 7.3125 131.1875 C8.00988281 131.86167969 8.70726562 132.53585937 9.42578125 133.23046875 C11 135 11 135 11 137 C11.99 137.33 12.98 137.66 14 138 C15.33130055 139.53284072 16.59434309 141.12579079 17.8125 142.75 C20.15693543 145.78524513 22.3239494 148.48110752 25.375 150.8125 C28.1264956 153.105413 29.02877998 154.60072992 30 158 C30.66 158 31.32 158 32 158 C32 160.64 32 163.28 32 166 C28.99551531 165.91467084 26.77209713 165.65360816 24.42822266 163.66943359 C22.81501467 161.89290179 21.30346476 160.06774074 19.8125 158.1875 C19.29236328 157.55779297 18.77222656 156.92808594 18.23632812 156.27929688 C16.80328294 154.53511799 15.39738097 152.77279675 14 151 C13.38511719 150.23300781 12.77023437 149.46601563 12.13671875 148.67578125 C11 147 11 147 11 145 C10.01 145 9.02 145 8 145 C6.28859531 143.03814584 4.62126675 141.03697617 3 139 C2.34 138.67 1.68 138.34 1 138 C1 137.34 1 136.68 1 136 C0.1028125 135.5978125 0.1028125 135.5978125 -0.8125 135.1875 C-2.99847854 134.00082594 -4.41332594 132.90400887 -6 131 C-6 130.34 -6 129.68 -6 129 C-6.7425 128.7525 -7.485 128.505 -8.25 128.25 C-11.23023087 126.89534961 -12.89919252 125.4898459 -15 123 C-15 122.34 -15 121.68 -15 121 C-16.98 120.01 -16.98 120.01 -19 119 C-19 118.34 -19 117.68 -19 117 C-25.18746845 121.52674699 -25.18746845 121.52674699 -30.4375 127.0625 C-35.35153088 132.69565735 -42.35762149 135.75981536 -49 139 C-49.99 139.66 -50.98 140.32 -52 141 C-53.32 141 -54.64 141 -56 141 C-55.72285156 141.73605469 -55.44570313 142.47210938 -55.16015625 143.23046875 C-54.79792969 144.20628906 -54.43570313 145.18210937 -54.0625 146.1875 C-53.70285156 147.15042969 -53.34320313 148.11335937 -52.97265625 149.10546875 C-52 152 -52 152 -51.49609375 154.80078125 C-51.25052734 155.88939453 -51.25052734 155.88939453 -51 157 C-50.34 157.33 -49.68 157.66 -49 158 C-46.81779327 163.69798424 -46.78084685 168.94893809 -47 175 C-50 176 -50 176 -53 175 C-53 173.68 -53 172.36 -53 171 C-53.66 171 -54.32 171 -55 171 C-55.33 168.36 -55.66 165.72 -56 163 C-56.66 163 -57.32 163 -58 163 C-58.12375 161.9275 -58.2475 160.855 -58.375 159.75 C-58.90748507 156.55508956 -59.51842728 154.76560241 -61 152 C-61 151.01 -61 150.02 -61 149 C-61.66 149 -62.32 149 -63 149 C-63.33 148.01 -63.66 147.02 -64 146 C-66.56329308 146.78916896 -69.12562759 147.58124319 -71.6875 148.375 C-72.40873047 148.59671875 -73.12996094 148.8184375 -73.87304688 149.046875 C-76.91756363 149.9922044 -79.88841439 150.95463003 -82.84375 152.15625 C-85.34881054 153.13649108 -87.33344796 153.1523744 -90 153 C-90 153.66 -90 154.32 -90 155 C-92.31 155.33 -94.62 155.66 -97 156 C-100.05308251 149.31229544 -103 142.42461024 -103 135 C-103.66 135 -104.32 135 -105 135 C-106.33873275 130.32678776 -106.18406878 125.76522054 -106.1875 120.9375 C-106.19974609 120.02677734 -106.21199219 119.11605469 -106.22460938 118.17773438 C-106.22654297 117.30310547 -106.22847656 116.42847656 -106.23046875 115.52734375 C-106.23457764 114.73062256 -106.23868652 113.93390137 -106.24291992 113.11303711 C-106 111 -106 111 -104 108 C-103.42553454 105.01277963 -103.04950108 102.02428992 -102.66015625 99.0078125 C-101.95508212 95.79534458 -100.79506751 93.72999851 -99 91 C-98.32650839 89.33607955 -97.6590841 87.66967972 -97 86 C-96.34 85.01 -95.68 84.02 -95 83 C-94.855625 82.236875 -94.71125 81.47375 -94.5625 80.6875 C-93.87809883 77.41758329 -92.56359678 74.95346059 -91 72 C-90.26533934 70.58617463 -89.53632 69.16940589 -88.8125 67.75 C-88.46832031 67.08484375 -88.12414062 66.4196875 -87.76953125 65.734375 C-86.86481155 64.0115494 -86.86481155 64.0115494 -87 62 C-87.721875 61.67 -88.44375 61.34 -89.1875 61 C-93.54089115 57.90425518 -95.33978041 54.01481967 -97 49 C-98.43031552 39.1883029 -96.83709615 27.49426248 -91.125 19.25 C-89.07086607 16.80558062 -88.21081895 16.07332833 -85.125 15 C-84.42375 15 -83.7225 15 -83 15 C-83 14.34 -83 13.68 -83 13 C-80.03 13 -77.06 13 -74 13 C-74 13.66 -74 14.32 -74 15 C-72.63875 15.309375 -72.63875 15.309375 -71.25 15.625 C-67.13945692 17.36407592 -66.09474831 19.10975313 -64 23 C-62.75 26.375 -62.75 26.375 -62 29 C-60.35 29.33 -58.7 29.66 -57 30 C-56.67 28.68 -56.34 27.36 -56 26 C-54.68 26 -53.36 26 -52 26 C-51.896875 25.360625 -51.79375 24.72125 -51.6875 24.0625 C-51.460625 23.381875 -51.23375 22.70125 -51 22 C-50.01 21.67 -49.02 21.34 -48 21 C-47.505 19.515 -47.505 19.515 -47 18 C-45 17.33333333 -43 16.66666667 -41 16 C-40.0409375 15.01 -40.0409375 15.01 -39.0625 14 C-36.29976881 11.32098793 -33.69917168 10.98644578 -30 10 C-26.40474971 8.42109731 -22.97802103 6.62416417 -19.66796875 4.51171875 C-16.65751489 2.80594182 -13.74020686 1.77563782 -10.4375 0.75 C-8.76494141 0.21632813 -8.76494141 0.21632813 -7.05859375 -0.328125 C-4.03021207 -0.99336338 -2.86035145 -0.85706306 0 0 Z " fill="#414245" transform="translate(461,313)"/>
<path d="M0 0 C0 0.66 0 1.32 0 2 C0.99128906 1.9484375 1.98257813 1.896875 3.00390625 1.84375 C7.43332662 2.01694337 10.81449176 3.00293126 14.9375 4.5 C15.62134766 4.73847656 16.30519531 4.97695313 17.00976562 5.22265625 C18.67658097 5.80545882 20.33880316 6.40137051 22 7 C22 7.66 22 8.32 22 9 C22.598125 9.144375 23.19625 9.28875 23.8125 9.4375 C28.10686442 10.54176514 29.90405935 11.90405935 33 15 C33.639375 15.309375 34.27875 15.61875 34.9375 15.9375 C37.85595715 17.44094762 39.74578255 19.63307167 42 22 C43.1446875 23.051875 43.1446875 23.051875 44.3125 24.125 C46 26 46 26 46 29 C46.99 29.33 47.98 29.66 49 30 C49 30.66 49 31.32 49 32 C49.66 32 50.32 32 51 32 C51.27714844 32.56589844 51.55429687 33.13179687 51.83984375 33.71484375 C52.20207031 34.44832031 52.56429687 35.18179688 52.9375 35.9375 C53.29714844 36.66839844 53.65679687 37.39929688 54.02734375 38.15234375 C54.86371827 39.96249027 54.86371827 39.96249027 56 41 C56.144375 42.11375 56.28875 43.2275 56.4375 44.375 C56.75300217 48.08510547 56.75300217 48.08510547 59 51 C60.08748852 54.977556 60.12896713 58.8013752 60.1328125 62.91015625 C60.13410156 64.22951172 60.13539063 65.54886719 60.13671875 66.90820312 C60.13462402 67.59019775 60.1325293 68.27219238 60.13037109 68.97485352 C60.12500777 71.05948126 60.1303355 73.14389443 60.13671875 75.22851562 C60.13478516 77.20561523 60.13478516 77.20561523 60.1328125 79.22265625 C60.13168457 80.42672119 60.13055664 81.63078613 60.12939453 82.87133789 C60 86 60 86 59 90 C58.67 94.95 58.34 99.9 58 105 C8.5 105 -41 105 -92 105 C-92.92384555 102.22846334 -93.15344543 100.43186097 -93.22119141 97.56030273 C-93.24436432 96.66605087 -93.26753723 95.77179901 -93.29141235 94.85044861 C-93.3112619 93.88788651 -93.33111145 92.9253244 -93.3515625 91.93359375 C-93.37471527 90.94375992 -93.39786804 89.95392609 -93.42172241 88.93409729 C-93.46933682 86.84193986 -93.51457391 84.74972717 -93.55761719 82.6574707 C-93.6248103 79.44656518 -93.70253972 76.2360321 -93.78125 73.02539062 C-93.82615677 70.99480563 -93.87044855 68.96420692 -93.9140625 66.93359375 C-93.93796051 65.96900742 -93.96185852 65.00442108 -93.98648071 64.01060486 C-94.0033493 63.11950516 -94.0202179 62.22840546 -94.03759766 61.31030273 C-94.05456696 60.52437241 -94.07153625 59.73844208 -94.08901978 58.92869568 C-94 57 -94 57 -93 55 C-91.35 55 -89.7 55 -88 55 C-85.90649311 58.4019487 -85.82057837 61.05272412 -86 65 C-84.515 64.505 -84.515 64.505 -83 64 C-81.66431979 64.32380126 -80.33076989 64.65657551 -79 65 C-78.01 64.505 -78.01 64.505 -77 64 C-76.42453328 62.02039447 -75.93714583 60.01467206 -75.5 58 C-75.06285417 55.98532794 -74.57546672 53.97960553 -74 52 C-73.01 51.505 -73.01 51.505 -72 51 C-71.67 51.99 -71.34 52.98 -71 54 C-70.62875 52.906875 -70.2575 51.81375 -69.875 50.6875 C-65.00395518 37.90100735 -57.09863926 28.91449054 -47.43359375 19.47265625 C-45.85125961 17.91211749 -45.85125961 17.91211749 -44.1875 15.5625 C-43.795625 15.046875 -43.40375 14.53125 -43 14 C-42.34 14 -41.68 14 -41 14 C-41 13.34 -41 12.68 -41 12 C-40.401875 11.4225 -39.80375 10.845 -39.1875 10.25 C-36.79316631 8.07776856 -36.79316631 8.07776856 -35.75 4.8125 C-35.1725 3.884375 -34.595 2.95625 -34 2 C-30.125 1.375 -30.125 1.375 -27.9921875 1.2734375 C-24.9356184 0.85390841 -23.25224917 -0.99800074 -21 -3 C-13.96448392 -5.44973384 -6.39484127 -3.19742063 0 0 Z " fill="#626271" transform="translate(374,495)"/>
<path d="M0 0 C2.8810388 0.62882361 5.31375373 1.53455141 7.9375 2.875 C8.91009766 3.36613281 8.91009766 3.36613281 9.90234375 3.8671875 C10.59457031 4.24101562 11.28679687 4.61484375 12 5 C12.84046875 5.45246094 13.6809375 5.90492188 14.546875 6.37109375 C21.82065913 11.20097907 25.50390888 20.61789655 29.15942383 28.28979492 C32.38168965 35.10279618 32.38168965 35.10279618 37 41 C37.15892832 42.37149254 37.2769631 43.74781491 37.375 45.125 C37.74629219 48.7636635 38.50852931 51.63723103 40.10546875 54.96484375 C41.74980656 58.70589177 42.88813178 62.63501632 44.1328125 66.5234375 C44.76865423 68.91321724 44.76865423 68.91321724 46 70 C46.53487482 72.50806849 46.96405456 75.02807921 47.40234375 77.5546875 C47.9099485 80.23465769 47.9099485 80.23465769 50 83 C50.1953125 85.69921875 50.1953125 85.69921875 50.125 88.6875 C50.10695313 89.68136719 50.08890625 90.67523438 50.0703125 91.69921875 C50.04710937 92.45847656 50.02390625 93.21773438 50 94 C50.66 94 51.32 94 52 94 C53.43748978 103.16399735 54.12182 112.1686917 51 121 C50.73788562 122.61719629 50.52332474 124.24342789 50.375 125.875 C50.30023438 126.65617187 50.22546875 127.43734375 50.1484375 128.2421875 C50.07496094 129.11230469 50.07496094 129.11230469 50 130 C49.34 130 48.68 130 48 130 C47.84144531 130.74765625 47.68289062 131.4953125 47.51953125 132.265625 C45.30885204 141.59688972 45.30885204 141.59688972 40 145 C39.30062468 146.31647119 38.63270867 147.65022151 38 149 C37.38125 149.598125 36.7625 150.19625 36.125 150.8125 C34.20520682 152.78875768 33.33577642 154.16112676 32.125 156.5625 C30.11536243 160.27441881 27.855869 161.26879351 24 163 C23.195625 163.804375 22.39125 164.60875 21.5625 165.4375 C19.3775867 167.6224133 17.95854172 168.6738748 15.3125 170.0625 C11.90955801 171.61239145 11.90955801 171.61239145 11.0625 174.1875 C10.711875 174.785625 10.36125 175.38375 10 176 C7.30423635 176.67533623 4.79337364 176.81978235 2 177 C2 177.66 2 178.32 2 179 C0.68 179 -0.64 179 -2 179 C-2 179.66 -2 180.32 -2 181 C-4.90548882 183.04169485 -6.40142046 184 -10 184 C-10 184.66 -10 185.32 -10 186 C-11.4540625 186.4021875 -11.4540625 186.4021875 -12.9375 186.8125 C-20.50737806 188.43978426 -20.50737806 188.43978426 -27 192 C-30.30355894 192.0318525 -33.59614271 191.93137077 -36.8984375 191.83984375 C-40.16944328 191.74386727 -40.16944328 191.74386727 -43 194 C-46.1875 194.125 -46.1875 194.125 -49 194 C-49.28434051 178.86214881 -49.13123696 164.41498128 -44.7890625 149.765625 C-43.58231581 145.5360376 -42.68038986 141.24201891 -41.74609375 136.9453125 C-41.04033321 134.15922116 -40.09810224 131.65043955 -39 129 C-38.67 127.783125 -38.34 126.56625 -38 125.3125 C-37 122 -37 122 -35 120 C-33.91787095 116.74923175 -33.01763551 113.46406907 -32.09765625 110.1640625 C-31.06174932 107.17799625 -29.95260547 105.4261256 -28 103 C-27.25276167 100.66488021 -26.60525118 98.37094636 -26 96 C-24.52386663 90.57497482 -22.80289083 85.41114576 -20.5625 80.25 C-17.72710507 73.65126271 -15.83570304 66.93259918 -14 60 C-13.34 60 -12.68 60 -12 60 C-12.04511719 58.906875 -12.09023437 57.81375 -12.13671875 56.6875 C-12.13080539 51.29451621 -10.98005441 46.24432611 -9.8125 41 C-9.35371814 38.88030536 -8.89539911 36.76051051 -8.4375 34.640625 C-8.2003125 33.55330078 -7.963125 32.46597656 -7.71875 31.34570312 C-6.99568961 27.97993559 -6.30502239 24.6090838 -5.625 21.234375 C-5.40481201 20.14769531 -5.18462402 19.06101563 -4.95776367 17.94140625 C-4.53510388 15.85097539 -4.11586594 13.75984908 -3.70043945 11.66796875 C-3.50667725 10.72050781 -3.31291504 9.77304688 -3.11328125 8.796875 C-2.86251831 7.54922363 -2.86251831 7.54922363 -2.60668945 6.27636719 C-1.9948931 3.98083833 -1.13773926 2.07903863 0 0 Z " fill="#46474B" transform="translate(181,166)"/>
<path d="M0 0 C0 0.66 0 1.32 0 2 C0.598125 2.144375 1.19625 2.28875 1.8125 2.4375 C6.10686442 3.54176514 7.90405935 4.90405935 11 8 C11.639375 8.309375 12.27875 8.61875 12.9375 8.9375 C15.85595715 10.44094762 17.74578255 12.63307167 20 15 C21.1446875 16.051875 21.1446875 16.051875 22.3125 17.125 C24 19 24 19 24 22 C25.485 22.495 25.485 22.495 27 23 C27 23.66 27 24.32 27 25 C27.66 25 28.32 25 29 25 C29.27714844 25.56589844 29.55429687 26.13179687 29.83984375 26.71484375 C30.38318359 27.81505859 30.38318359 27.81505859 30.9375 28.9375 C31.29714844 29.66839844 31.65679687 30.39929688 32.02734375 31.15234375 C32.86371827 32.96249027 32.86371827 32.96249027 34 34 C34.144375 35.11375 34.28875 36.2275 34.4375 37.375 C34.75300217 41.08510547 34.75300217 41.08510547 37 44 C38.08748852 47.977556 38.12896713 51.8013752 38.1328125 55.91015625 C38.13410156 57.22951172 38.13539063 58.54886719 38.13671875 59.90820312 C38.13462402 60.59019775 38.1325293 61.27219238 38.13037109 61.97485352 C38.12500777 64.05948126 38.1303355 66.14389443 38.13671875 68.22851562 C38.13542969 69.54658203 38.13414062 70.86464844 38.1328125 72.22265625 C38.13168457 73.42672119 38.13055664 74.63078613 38.12939453 75.87133789 C38 79 38 79 37 83 C36.67 87.95 36.34 92.9 36 98 C14.55 98 -6.9 98 -29 98 C-29 89 -29 89 -27 86 C-26.36070675 83.59039384 -26.36070675 83.59039384 -25.9296875 80.88671875 C-25.75566406 79.88576172 -25.58164062 78.88480469 -25.40234375 77.85351562 C-25.14130859 76.28633789 -25.14130859 76.28633789 -24.875 74.6875 C-24.69324219 73.65431641 -24.51148438 72.62113281 -24.32421875 71.55664062 C-23.0056732 64.31838741 -23.0056732 64.31838741 -23 57 C-24.91859167 54.26780807 -24.91859167 54.26780807 -27 52 C-27 51.34 -27 50.68 -27 50 C-28.485 49.505 -28.485 49.505 -30 49 C-30 48.34 -30 47.68 -30 47 C-30.66 47 -31.32 47 -32 47 C-32.33 45.68 -32.66 44.36 -33 43 C-33.61488281 43.37253906 -34.22976563 43.74507812 -34.86328125 44.12890625 C-35.67152344 44.60199219 -36.47976563 45.07507813 -37.3125 45.5625 C-38.11300781 46.03816406 -38.91351563 46.51382813 -39.73828125 47.00390625 C-42 48 -42 48 -45 47 C-42 45 -39 43 -36 41 C-36.27714844 40.29875 -36.55429687 39.5975 -36.83984375 38.875 C-40.37312406 29.62057186 -42.77161349 20.45696012 -39.1796875 10.79296875 C-37.32130229 6.84938753 -35.30969116 3.89597977 -32 1 C-31.484375 0.29875 -30.96875 -0.4025 -30.4375 -1.125 C-21.1737581 -8.2509553 -9.62029992 -3.84811997 0 0 Z " fill="#5A5B5E" transform="translate(396,502)"/>
<path d="M0 0 C2.6875 1.6875 2.6875 1.6875 5 4 C6.546875 5.0209375 6.546875 5.0209375 8.125 6.0625 C12.38422024 9.58812704 12.96839687 14.81119021 14 20 C14.3403125 21.5159375 14.3403125 21.5159375 14.6875 23.0625 C15.49025693 30.60841513 15.79014192 36.38432533 11.609375 43.01953125 C7.86584292 47.62625641 3.2819921 50.02113263 -2.5 51.1875 C-7.21380616 51.50555959 -9.77059479 49.61011306 -13.2734375 46.640625 C-14.12808594 45.82851563 -14.12808594 45.82851563 -15 45 C-15.53367188 44.53464844 -16.06734375 44.06929688 -16.6171875 43.58984375 C-22.32816945 37.02382778 -21.14245847 26.85102987 -20.6171875 18.796875 C-19.49476021 11.89181596 -16.72563725 7.08006005 -12 2 C-7.97116704 -0.68588864 -4.73403729 -0.67868499 0 0 Z " fill="#040404" transform="translate(222,326)"/>
<path d="M0 0 C2.97 0 5.94 0 9 0 C9 0.66 9 1.32 9 2 C10.36125 2.309375 10.36125 2.309375 11.75 2.625 C14.93832122 3.97390513 16.44220647 4.99165358 18.1875 7.98046875 C19.99725626 12.47875715 20.5052243 17.207233 21 22 C21.09667969 22.91265625 21.19335938 23.8253125 21.29296875 24.765625 C21.7081228 32.4403648 19.90789597 39.36841895 16 46 C12.6436491 49.27195523 9.33341395 50.80099647 4.6640625 51.19921875 C-0.43060014 50.89493003 -5.22707312 49.52951225 -9 46 C-14.9590982 38.01933431 -14.8661257 30.12677445 -13.5234375 20.62890625 C-12.20230917 13.74471343 -10.37031076 7.77957658 -5 3 C-2.125 2 -2.125 2 0 2 C0 1.34 0 0.68 0 0 Z " fill="#040404" transform="translate(378,326)"/>
<path d="M0 0 C0.95003906 -0.00322266 1.90007812 -0.00644531 2.87890625 -0.00976562 C8.25686214 0.031259 12.79051879 0.54490335 17.875 2.3125 C16.31896229 6.13186528 13.91895069 8.57294438 10.875 11.3125 C10.215 11.3125 9.555 11.3125 8.875 11.3125 C8.606875 12.09625 8.33875 12.88 8.0625 13.6875 C6.875 16.3125 6.875 16.3125 3.875 18.3125 C2.42928865 22.80518526 2.64580049 26.62490146 4.125 31.0625 C4.99125 32.67125 4.99125 32.67125 5.875 34.3125 C6.2875 35.22 6.7 36.1275 7.125 37.0625 C9.60545553 40.25165711 12.09893865 40.95881763 15.875 42.3125 C15.875 42.9725 15.875 43.6325 15.875 44.3125 C20.99291642 44.41912326 25.80428099 44.02417986 30.875 43.3125 C31.205 42.3225 31.535 41.3325 31.875 40.3125 C32.535 40.3125 33.195 40.3125 33.875 40.3125 C33.99875 39.755625 34.1225 39.19875 34.25 38.625 C34.95260904 36.02534654 35.64157238 33.714438 36.875 31.3125 C38.875 30.375 38.875 30.375 40.875 30.3125 C42.875 32.3125 42.875 32.3125 43.375 35.375 C42.67936427 40.85313139 40.68663528 44.34013311 36.875 48.3125 C30.47046615 52.80505763 23.76727057 52.72901764 16.21484375 51.93359375 C11.67526697 51.08939175 7.92092153 49.48266165 3.875 47.3125 C0.93834746 45.60945572 0.93834746 45.60945572 -2.125 45.3125 C-4.1628847 46.38578594 -5.97060549 47.67344592 -7.85546875 48.99609375 C-11.97590078 51.38608616 -16.4494476 51.81203765 -21.125 52.3125 C-21.83914063 52.39628906 -22.55328125 52.48007812 -23.2890625 52.56640625 C-28.94292465 52.91554913 -33.2379106 50.84654636 -38.125 48.3125 C-38.125 47.6525 -38.125 46.9925 -38.125 46.3125 C-39.115 45.9825 -40.105 45.6525 -41.125 45.3125 C-44.303344 40.48612578 -44.41338914 36.88802338 -44.125 31.3125 C-40.375 30.1875 -40.375 30.1875 -38.125 31.3125 C-37.44921875 33.01953125 -37.44921875 33.01953125 -36.8125 35.125 C-35.34639712 39.15497737 -34.0099043 41.20113897 -30.125 43.3125 C-24.16075842 45.08784817 -19.63897247 44.33372695 -14.13671875 41.55859375 C-10.19702899 39.11828106 -7.66796122 36.12694183 -5.125 32.3125 C-4.03629783 27.4165998 -3.93463572 23.19450035 -5.125 18.3125 C-7.8261022 14.47514468 -11.43283693 11.63088881 -15.0859375 8.73828125 C-18.125 6.3125 -18.125 6.3125 -20.125 3.3125 C-13.31315099 0.52640948 -7.31869818 -0.12514874 0 0 Z " fill="#050505" transform="translate(301.125,384.6875)"/>
<path d="M0 0 C2.90737782 -0.42546992 5.10068873 -0.6442827 7.5703125 1.125 C8.69956798 2.17242537 9.82281179 3.22635303 10.94140625 4.28515625 C13.3513467 6.2926778 15.84058125 7.62357219 18.625 9.0625 C22.82239827 11.25294554 25.77566106 13.49116057 29 17 C29.928125 17.53625 30.85625 18.0725 31.8125 18.625 C32.534375 19.07875 33.25625 19.5325 34 20 C34 20.99 34 21.98 34 23 C34.556875 23.061875 35.11375 23.12375 35.6875 23.1875 C38.94344904 24.33148209 40.607132 26.54876936 43 29 C43.825 29.495 44.65 29.99 45.5 30.5 C48.52308529 32.31385117 50.56088593 34.44743876 53 37 C53.6909375 37.6703125 54.381875 38.340625 55.09375 39.03125 C55.8259375 39.7428125 56.558125 40.454375 57.3125 41.1875 C58.00988281 41.86167969 58.70726562 42.53585937 59.42578125 43.23046875 C61 45 61 45 61 47 C61.99 47.33 62.98 47.66 64 48 C65.33130055 49.53284072 66.59434309 51.12579079 67.8125 52.75 C70.15693543 55.78524513 72.3239494 58.48110752 75.375 60.8125 C78.1264956 63.105413 79.02877998 64.60072992 80 68 C80.66 68 81.32 68 82 68 C82 70.64 82 73.28 82 76 C78.99551531 75.91467084 76.77209713 75.65360816 74.42822266 73.66943359 C72.81501467 71.89290179 71.30346476 70.06774074 69.8125 68.1875 C69.29236328 67.55779297 68.77222656 66.92808594 68.23632812 66.27929688 C66.80328294 64.53511799 65.39738097 62.77279675 64 61 C63.07767578 59.84951172 63.07767578 59.84951172 62.13671875 58.67578125 C61 57 61 57 61 55 C60.01 55 59.02 55 58 55 C56.28859531 53.03814584 54.62126675 51.03697617 53 49 C52.01 48.505 52.01 48.505 51 48 C51 47.34 51 46.68 51 46 C50.401875 45.731875 49.80375 45.46375 49.1875 45.1875 C47.00152146 44.00082594 45.58667406 42.90400887 44 41 C44 40.34 44 39.68 44 39 C43.2575 38.7525 42.515 38.505 41.75 38.25 C38.76976913 36.89534961 37.10080748 35.4898459 35 33 C35 32.34 35 31.68 35 31 C33.68 30.34 32.36 29.68 31 29 C31 28.34 31 27.68 31 27 C30.2678125 26.91492188 29.535625 26.82984375 28.78125 26.7421875 C25.43539787 25.8493337 23.98189276 24.51076311 21.5 22.125 C18.48938691 19.25219666 15.59199357 17.09338586 12 15 C11.01 14.154375 10.02 13.30875 9 12.4375 C6.27943351 10.22703972 4.22598158 9.19822173 1 8 C-0.35439668 5.29120665 -0.06501451 2.99066732 0 0 Z " fill="#2D2D2D" transform="translate(411,403)"/>
<path d="M0 0 C1 1 1 1 1.0625 4.0625 C1.041875 5.031875 1.02125 6.00125 1 7 C-0.32 7 -1.64 7 -3 7 C-3.20625 7.5775 -3.4125 8.155 -3.625 8.75 C-5.51625222 11.84477636 -7.90035937 13.1918763 -11 15 C-11.66 15 -12.32 15 -13 15 C-13 15.66 -13 16.32 -13 17 C-14.98 17.66 -16.96 18.32 -19 19 C-19 19.66 -19 20.32 -19 21 C-20.010625 21.53625 -21.02125 22.0725 -22.0625 22.625 C-26.15416667 24.96661647 -29.50973432 27.85426698 -33 31 C-34.3525198 32.18937539 -35.70672268 33.37683923 -37.0625 34.5625 C-37.72894531 35.14902344 -38.39539063 35.73554688 -39.08203125 36.33984375 C-40.77738271 37.80730683 -42.50242112 39.22077415 -44.25 40.625 C-46.90190487 42.91528148 -48.86056606 45.23944008 -51 48 C-55.36363636 52.69090909 -55.36363636 52.69090909 -58.1875 54.0625 C-60.53801104 55.27828157 -60.87248269 56.66979756 -62 59 C-63.485 59.495 -63.485 59.495 -65 60 C-65.12375 60.5775 -65.2475 61.155 -65.375 61.75 C-66.29305542 65.05499952 -68.57380998 66.63157641 -71 69 C-72.00568242 70.66324401 -73.00664799 72.32936253 -74 74 C-77 76 -77 76 -81 76 C-81.8125 74 -81.8125 74 -82 71 C-80.69424348 68.06882042 -79.1549389 65.38582521 -77 63 C-76.01 63 -75.02 63 -74 63 C-73.814375 62.34 -73.62875 61.68 -73.4375 61 C-70.40706058 54.67560469 -64.90622715 49.90622715 -60 45 C-59.278125 44.071875 -58.55625 43.14375 -57.8125 42.1875 C-57.214375 41.465625 -56.61625 40.74375 -56 40 C-55.34 40 -54.68 40 -54 40 C-54 39.34 -54 38.68 -54 38 C-50.53846154 35 -50.53846154 35 -48 35 C-47.731875 34.360625 -47.46375 33.72125 -47.1875 33.0625 C-46 31 -46 31 -43 30 C-43 29.34 -43 28.68 -43 28 C-39.53846154 25 -39.53846154 25 -37 25 C-37 24.34 -37 23.68 -37 23 C-36.34 23 -35.68 23 -35 23 C-35 22.34 -35 21.68 -35 21 C-33.3603125 20.1028125 -33.3603125 20.1028125 -31.6875 19.1875 C-29.05781761 17.69770009 -27.08740271 16.19726601 -25 14 C-24.34 14 -23.68 14 -23 14 C-23 13.34 -23 12.68 -23 12 C-21.68 12 -20.36 12 -19 12 C-19 11.01 -19 10.02 -19 9 C-18.01 9 -17.02 9 -16 9 C-16 8.34 -16 7.68 -16 7 C-10.70588235 3 -10.70588235 3 -7 3 C-7 2.34 -7 1.68 -7 1 C-4.51588385 -0.24205807 -2.74800896 -0.14092354 0 0 Z " fill="#2C2C2C" transform="translate(189,403)"/>
<path d="M0 0 C10.67930027 0.13582576 21.31391994 2.98954268 31.40234375 6.27734375 C34.35368958 7.22314183 37.31345553 8.03315647 40.3125 8.8125 C44.55730813 9.95462823 48.42938951 11.42173907 52.4375 13.25 C54.43669216 14.0644857 56.43677138 14.87679584 58.4375 15.6875 C67.66062182 19.56421996 67.66062182 19.56421996 71.4375 22.25 C72.4375 24.9375 72.4375 24.9375 72.4375 27.25 C71.4375 28.25 71.4375 28.25 68.28515625 28.48828125 C64.11727032 28.23016852 61.59737023 27.27852788 57.875 25.4375 C56.80121094 24.91542969 55.72742188 24.39335937 54.62109375 23.85546875 C52.49603718 22.78381446 50.37620833 21.70173124 48.26171875 20.609375 C45.46358784 19.2625568 42.7850387 18.5333628 39.765625 17.84765625 C36.97180633 17.13045112 34.28696604 16.1965773 31.5625 15.25 C27.21912179 13.78242376 22.99593252 12.63941712 18.4921875 11.8125 C14.15001286 11.01291797 9.8251955 10.13630724 5.5 9.25 C4.65816162 9.08371094 3.81632324 8.91742188 2.94897461 8.74609375 C2.15241455 8.58238281 1.35585449 8.41867187 0.53515625 8.25 C-0.18148193 8.105625 -0.89812012 7.96125 -1.63647461 7.8125 C-3.5625 7.25 -3.5625 7.25 -6.5625 5.25 C-4.16355448 0.29217926 -4.16355448 0.29217926 0 0 Z " fill="#2D2D2D" transform="translate(437.5625,379.75)"/>
<path d="M0 0 C0 1.32 0 2.64 0 4 C-4.11423139 7.54188871 -8.82099132 7.72146123 -14 8.3125 C-21.69687514 9.32045824 -29.04503854 10.89792479 -36.5 13.0625 C-37.83417969 13.4488562 -37.83417969 13.4488562 -39.1953125 13.84301758 C-43.72889248 15.17950434 -43.72889248 15.17950434 -48.06445312 17.03295898 C-50 18 -50 18 -53.25 18.875 C-57.47617285 20.14285185 -61.09564539 21.98609377 -65 24 C-69.41581977 26.20790988 -72.98219069 27.36715678 -78 27 C-78.33 25.35 -78.66 23.7 -79 22 C-77.60922699 21.17886823 -76.21211107 20.36847505 -74.8125 19.5625 C-73.64654297 18.88380859 -73.64654297 18.88380859 -72.45703125 18.19140625 C-69.95068023 16.97608501 -67.74209635 16.42373425 -65 16 C-65 15.34 -65 14.68 -65 14 C-64.43410156 13.87882812 -63.86820313 13.75765625 -63.28515625 13.6328125 C-62.18494141 13.38144531 -62.18494141 13.38144531 -61.0625 13.125 C-59.96615234 12.88136719 -59.96615234 12.88136719 -58.84765625 12.6328125 C-56.79299706 12.17038477 -56.79299706 12.17038477 -56 10 C-54.14453125 9.4375 -54.14453125 9.4375 -51.8125 9 C-48.07572069 8.28701996 -44.60065823 7.22894003 -41 6 C-10.38896104 -3.46298701 -10.38896104 -3.46298701 0 0 Z " fill="#2C2C2C" transform="translate(170,381)"/>
<path d="M0 0 C3.83462016 0.39668484 5.56209205 2.12231258 8 5 C9.16015625 8.05859375 9.16015625 8.05859375 10.0625 11.4375 C11.31735153 16.10130758 11.31735153 16.10130758 13.46484375 20.38671875 C15.52070674 23.88639392 16.44348051 27.47610228 17.5 31.375 C18.9870178 36.8050134 20.73639963 41.84437763 23 47 C23.185625 47.94875 23.37125 48.8975 23.5625 49.875 C23.7790625 50.926875 23.7790625 50.926875 24 52 C24.66 52.33 25.32 52.66 26 53 C28.18220673 58.69798424 28.21915315 63.94893809 28 70 C25 71 25 71 22 70 C22 68.68 22 67.36 22 66 C21.34 66 20.68 66 20 66 C19.67 63.36 19.34 60.72 19 58 C18.34 58 17.68 58 17 58 C16.87625 56.9275 16.7525 55.855 16.625 54.75 C16.09251493 51.55508956 15.48157272 49.76560241 14 47 C14 46.01 14 45.02 14 44 C13.34 44 12.68 44 12 44 C10.33445973 38.69960141 8.72724594 33.52706913 8 28 C7.34 28 6.68 28 6 28 C5.82984375 27.47792969 5.6596875 26.95585937 5.484375 26.41796875 C5.24203125 25.68191406 4.9996875 24.94585937 4.75 24.1875 C4.48058594 23.36894531 4.21117187 22.55039062 3.93359375 21.70703125 C3.29590269 19.857994 2.61943698 18.02199397 1.91015625 16.19921875 C-0.14871948 10.90182675 -1.61959801 6.70030171 -1 1 C-0.67 0.67 -0.34 0.34 0 0 Z " fill="#2D2D2D" transform="translate(386,418)"/>
<path d="M0 0 C3.69230769 0.69230769 3.69230769 0.69230769 5 2 C5.23529412 9.29411765 5.23529412 9.29411765 4 13 C3.34 13 2.68 13 2 13 C1.896875 14.216875 1.79375 15.43375 1.6875 16.6875 C1.45516538 19.42904846 1.04071823 20.93304114 -0.40625 23.3125 C-2.32870018 26.55427873 -3.20292721 29.67976592 -4.1875 33.3125 C-4.53167969 34.56675781 -4.87585938 35.82101562 -5.23046875 37.11328125 C-5.48441406 38.06589844 -5.73835938 39.01851563 -6 40 C-6.66 40 -7.32 40 -8 40 C-8.0825 40.763125 -8.165 41.52625 -8.25 42.3125 C-8.88412994 45.43030551 -9.69797146 48.041036 -10.8125 51 C-13.28134641 57.55646026 -15.14735627 64.24967578 -17 71 C-18.98 70.67 -20.96 70.34 -23 70 C-23.31891323 63.36188016 -23.25681159 58.91050992 -20 53 C-18.86319061 49.03140868 -17.91815378 45.02424849 -17 41 C-16.01 41 -15.02 41 -14 41 C-14.04125 39.948125 -14.0825 38.89625 -14.125 37.8125 C-14.00852125 34.25989827 -13.52791932 32.15133359 -12 29 C-11.34 29 -10.68 29 -10 29 C-9.41387519 26.23684016 -8.95827018 23.56600992 -8.6875 20.75 C-7.83078502 16.07700922 -6.02101775 12.26742781 -4 8 C-3.43144631 6.66923679 -2.86831055 5.33613572 -2.3125 4 C-1 1 -1 1 0 0 Z " fill="#2E2E2E" transform="translate(210,418)"/>
<path d="M0 0 C1.67542976 0.28604898 3.34385343 0.61781233 5 1 C5.77016663 7.60135029 6.13930423 14.0827953 6.09765625 20.7265625 C6.0962413 21.60025482 6.09482635 22.47394714 6.09336853 23.37411499 C6.08783674 26.12444703 6.07529774 28.87469318 6.0625 31.625 C6.05747616 33.50650923 6.05291481 35.38801975 6.04882812 37.26953125 C6.03788979 41.84638652 6.02067362 46.42317877 6 51 C3.36 51 0.72 51 -2 51 C-2.02486852 45.32576816 -2.04293935 39.65156862 -2.05493164 33.97729492 C-2.05993539 32.05020596 -2.06674045 30.12312075 -2.07543945 28.19604492 C-2.08767948 25.41323924 -2.09326804 22.63048411 -2.09765625 19.84765625 C-2.10281754 18.99728287 -2.10797882 18.14690948 -2.11329651 17.27076721 C-2.11380297 11.7712737 -1.76819858 6.44952454 -1 1 C-0.67 0.67 -0.34 0.34 0 0 Z " fill="#ADADB7" transform="translate(310,549)"/>
<path d="M0 0 C1.65 0 3.3 0 5 0 C6.56140245 2.79447993 7.27069529 4.91279135 7.4140625 8.10546875 C7.45281494 8.91282471 7.49156738 9.72018066 7.53149414 10.55200195 C7.56235107 11.42171631 7.59320801 12.29143066 7.625 13.1875 C7.66294678 14.09137451 7.70089355 14.99524902 7.73999023 15.92651367 C8.1646833 27.2795898 8.09188754 38.64128641 8 50 C5.69 50 3.38 50 1 50 C0.07615445 47.22846334 -0.15344543 45.43186097 -0.22119141 42.56030273 C-0.24436432 41.66605087 -0.26753723 40.77179901 -0.29141235 39.85044861 C-0.3112619 38.88788651 -0.33111145 37.9253244 -0.3515625 36.93359375 C-0.37471527 35.94375992 -0.39786804 34.95392609 -0.42172241 33.93409729 C-0.46933682 31.84193986 -0.51457391 29.74972717 -0.55761719 27.6574707 C-0.6248103 24.44656518 -0.70253972 21.2360321 -0.78125 18.02539062 C-0.82615677 15.99480563 -0.87044855 13.96420692 -0.9140625 11.93359375 C-0.93796051 10.96900742 -0.96185852 10.00442108 -0.98648071 9.01060486 C-1.0033493 8.11950516 -1.0202179 7.22840546 -1.03759766 6.31030273 C-1.05456696 5.52437241 -1.07153625 4.73844208 -1.08901978 3.92869568 C-1 2 -1 2 0 0 Z " fill="#AEAEB7" transform="translate(281,550)"/>
<path d="M0 0 C1 1 1 1 1.125 4.4375 C1 8 1 8 0 10 C-2.328125 10.4921875 -2.328125 10.4921875 -5.25 10.875 C-10.07181117 11.64450397 -12.21532291 12.9313429 -16 16 C-18.75764375 16.34340469 -21.20666128 16.1893789 -24 16 C-24.0809723 13.56183415 -24.14046972 11.12635616 -24.1875 8.6875 C-24.21263672 7.99720703 -24.23777344 7.30691406 -24.26367188 6.59570312 C-24.33733722 1.51279435 -24.33733722 1.51279435 -22.73828125 -0.91796875 C-15.87252808 -5.19170724 -6.73484063 -3.58236204 0 0 Z " fill="#565665" transform="translate(364,481)"/>
<path d="M0 0 C0.66 0 1.32 0 2 0 C2.83919398 2.26882087 3.67151724 4.53977027 4.5 6.8125 C4.85771484 7.77639648 4.85771484 7.77639648 5.22265625 8.75976562 C6.27068746 11.64933739 7 13.90076061 7 17 C7.763125 17.268125 8.52625 17.53625 9.3125 17.8125 C11.88988618 18.95134505 13.26954864 19.81416671 15 22 C15 22.66 15 23.32 15 24 C7.98526268 22.4216841 3.59207019 17.82078227 -1.125 12.6875 C-2.54460934 8.32727131 -1.17001133 4.33493407 0 0 Z " fill="#505060" transform="translate(237,486)"/>
<path d="M0 0 C1.98 0.66 3.96 1.32 6 2 C6 2.66 6 3.32 6 4 C7.65 4 9.3 4 11 4 C11 4.33 11 4.66 11 5 C6.38 5.66 1.76 6.32 -3 7 C-1 1 -1 1 0 0 Z " fill="#6D6C79" transform="translate(368,493)"/>
<path d="M0 0 C0.66 0.33 1.32 0.66 2 1 C-0.97 3.97 -3.94 6.94 -7 10 C-7.66 9.67 -8.32 9.34 -9 9 C-7.625 7 -7.625 7 -6 5 C-5.34 5 -4.68 5 -4 5 C-4 4.34 -4 3.68 -4 3 C-2 1.375 -2 1.375 0 0 Z " fill="#514F4B" transform="translate(139,438)"/>
<path d="M0 0 C0.66 0 1.32 0 2 0 C2.33 2.31 2.66 4.62 3 7 C1.68 7.33 0.36 7.66 -1 8 C-0.67 5.36 -0.34 2.72 0 0 Z " fill="#6F6E7A" transform="translate(217,508)"/>
<path d="M0 0 C0.86625 0.37125 0.86625 0.37125 1.75 0.75 C1.151875 0.935625 0.55375 1.12125 -0.0625 1.3125 C-3.34981799 3.47273753 -3.89854687 6.10107655 -5.25 9.75 C-5.58 9.75 -5.91 9.75 -6.25 9.75 C-6.58102914 6.1086795 -6.67019439 4.33527075 -4.5 1.3125 C-2.25 -0.25 -2.25 -0.25 0 0 Z " fill="#686773" transform="translate(242.25,479.25)"/>
</svg>
